<svg width="468" height="363" viewBox="0 0 468 363" fill="none" xmlns="http://www.w3.org/2000/svg">
<g clip-path="url(#clip0)">
<path d="M396.182 32.3277C366.353 18.6235 334.366 8.52677 300.922 2.74398C300.313 2.63238 299.705 2.91129 299.391 3.46912C295.277 10.7952 290.72 20.3527 287.529 27.8648C251.558 22.4726 215.771 22.4726 180.537 27.8648C177.346 20.1857 172.623 10.7952 168.491 3.46912C168.177 2.9299 167.569 2.65099 166.96 2.74398C133.534 8.50829 101.547 18.605 71.7002 32.3277C71.4418 32.4392 71.2204 32.6254 71.0734 32.8669C10.4011 123.626 -6.21953 212.155 1.93401 299.585C1.97091 300.013 2.21071 300.422 2.54276 300.682C42.5726 330.117 81.3483 347.987 119.404 359.831C120.013 360.017 120.658 359.794 121.046 359.292C130.048 346.983 138.073 334.004 144.953 320.355C145.359 319.556 144.971 318.607 144.141 318.291C131.413 313.457 119.293 307.562 107.635 300.868C106.713 300.329 106.639 299.009 107.487 298.376C109.94 296.536 112.394 294.62 114.737 292.686C115.161 292.333 115.752 292.259 116.25 292.482C192.841 327.496 275.76 327.496 351.448 292.482C351.946 292.24 352.537 292.315 352.979 292.668C355.322 294.602 357.775 296.536 360.247 298.376C361.096 299.009 361.04 300.329 360.118 300.868C348.46 307.692 336.34 313.457 323.593 318.273C322.763 318.589 322.394 319.556 322.8 320.355C329.828 333.985 337.853 346.964 346.688 359.273C347.058 359.794 347.721 360.017 348.33 359.831C386.571 347.987 425.346 330.117 465.376 300.682C465.727 300.422 465.948 300.032 465.985 299.604C475.743 198.524 449.641 110.722 396.79 32.8854C396.661 32.6254 396.44 32.4392 396.182 32.3277ZM156.39 246.349C133.331 246.349 114.331 225.152 114.331 199.12C114.331 173.087 132.963 151.89 156.39 151.89C180.002 151.89 198.818 173.273 198.449 199.12C198.449 225.152 179.817 246.349 156.39 246.349ZM311.898 246.349C288.839 246.349 269.839 225.152 269.839 199.12C269.839 173.087 288.47 151.89 311.898 151.89C335.51 151.89 354.325 173.273 353.957 199.12C353.957 225.152 335.51 246.349 311.898 246.349Z" fill="#5238B1"/>
</g>
<defs>
<clipPath id="clip0">
<rect width="468" height="363" fill="white"/>
</clipPath>
</defs>
</svg>
