<svg width="31" height="31" viewBox="0 0 31 31" fill="none" xmlns="http://www.w3.org/2000/svg">
<g filter="url(#filter0_d)">
<path d="M15.5 0C9.15008 0 4 5.14913 4 11.5C4 16.5811 7.29475 20.8917 11.865 22.4125C12.4391 22.5189 12.625 22.1624 12.625 21.8596V19.7187C9.42608 20.4144 8.76004 18.3617 8.76004 18.3617C8.23679 17.0325 7.48258 16.6788 7.48258 16.6788C6.43896 15.9649 7.56212 15.9802 7.56212 15.9802C8.71692 16.0607 9.3245 17.1657 9.3245 17.1657C10.3499 18.9233 12.0145 18.4153 12.671 18.1211C12.7735 17.3784 13.0716 16.8705 13.4012 16.584C10.8473 16.2917 8.16204 15.3055 8.16204 10.9001C8.16204 9.64371 8.6115 8.61829 9.34654 7.81329C9.22771 7.52292 8.83383 6.35279 9.45867 4.76963C9.45867 4.76963 10.4247 4.46104 12.6221 5.94837C13.5392 5.69346 14.5225 5.566 15.5 5.56121C16.4775 5.566 17.4617 5.69346 18.3807 5.94837C20.5763 4.46104 21.5404 4.76963 21.5404 4.76963C22.1662 6.35375 21.7723 7.52387 21.6535 7.81329C22.3914 8.61829 22.837 9.64467 22.837 10.9001C22.837 15.317 20.147 16.2897 17.5863 16.5744C17.9984 16.9309 18.375 17.6305 18.375 18.7038V21.8596C18.375 22.1653 18.559 22.5247 19.1426 22.4116C23.7091 20.8888 27 16.5792 27 11.5C27 5.14913 21.8509 0 15.5 0Z" fill="white"/>
</g>
<defs>
<filter id="filter0_d" x="0" y="0" width="31" height="31" filterUnits="userSpaceOnUse" color-interpolation-filters="sRGB">
<feFlood flood-opacity="0" result="BackgroundImageFix"/>
<feColorMatrix in="SourceAlpha" type="matrix" values="0 0 0 0 0 0 0 0 0 0 0 0 0 0 0 0 0 0 127 0"/>
<feOffset dy="4"/>
<feGaussianBlur stdDeviation="2"/>
<feColorMatrix type="matrix" values="0 0 0 0 0 0 0 0 0 0 0 0 0 0 0 0 0 0 0.25 0"/>
<feBlend mode="normal" in2="BackgroundImageFix" result="effect1_dropShadow"/>
<feBlend mode="normal" in="SourceGraphic" in2="effect1_dropShadow" result="shape"/>
</filter>
</defs>
</svg>
