<svg width="24" height="24" viewBox="0 0 24 24" fill="none" xmlns="http://www.w3.org/2000/svg">
<path fill-rule="evenodd" clip-rule="evenodd" d="M15.7978 23.3866C20.5592 21.7993 23.9933 17.3089 24 12.0155C23.9933 17.3088 20.5613 21.7986 15.801 23.386C15.7999 23.3862 15.7988 23.3864 15.7978 23.3866ZM24 12C24 5.37258 18.6274 0 12 0C5.37258 0 0 5.37258 0 12C0 18.6274 5.37258 24 12 24C13.3273 24 14.6042 23.7845 15.7978 23.3866C15.1913 23.5027 15 23.1284 15 22.81V19.517C15 18.397 14.607 17.667 14.177 17.295C16.849 16.998 19.656 15.983 19.656 11.374C19.656 10.064 19.191 8.993 18.421 8.153C18.545 7.851 18.956 6.63 18.303 4.977C18.303 4.977 17.297 4.655 15.006 6.207C14.047 5.941 13.02 5.808 12 5.803C10.98 5.808 9.954 5.941 8.997 6.207C6.704 4.655 5.696 4.977 5.696 4.977C5.044 6.629 5.455 7.85 5.579 8.153C4.812 8.993 4.343 10.063 4.343 11.374C4.343 15.971 7.145 17 9.81 17.305C9.466 17.604 9.155 18.134 9.048 18.909C8.363 19.216 6.626 19.746 5.556 17.912C5.556 17.912 4.922 16.759 3.717 16.675C3.717 16.675 2.545 16.659 3.634 17.404C3.634 17.404 4.421 17.773 4.967 19.16C4.967 19.16 5.662 21.302 9 20.576V22.81C9 23.126 8.806 23.498 8.207 23.387C3.438 21.8 0 17.302 0 12C0 5.373 5.374 0 12 0C18.627 0 24 5.373 24 12Z" fill="#5238B1"/>
</svg>
