<svg width="248" height="58" viewBox="0 0 248 58" fill="none" xmlns="http://www.w3.org/2000/svg">
<path d="M59.8449 32.9428C60.9899 42.2181 43.4738 41.3574 43.4738 41.3574C43.4738 41.3574 43.6886 46.4238 57.4096 46.8503C71.1307 47.2751 82.8129 31.97 83.2488 36.0256C84.0069 43.082 73.2217 53.755 56.6626 57.0905C39.2933 60.5887 26.1582 47.3083 15.5578 44.5808C4.95747 41.8533 0 43.6743 0 43.6743C12.0628 20.2356 39.0422 31.9352 44.5319 32.7865C50.0232 33.6377 59.8449 32.9428 59.8449 32.9428Z" fill="white"/>
<path d="M95.6418 34.6903C95.0022 32.773 94.2536 30.9141 93.3834 29.12C93.2997 28.9589 93.2223 28.7915 93.1386 28.6289C93.0675 28.493 93.0028 28.3509 92.9254 28.2151C92.848 28.0477 92.7643 27.8866 92.6743 27.7239C92.3 27.0132 91.9067 26.3104 91.493 25.6203C91.3192 25.317 91.1313 25.0138 90.9449 24.7106C90.9197 24.6711 90.8928 24.6332 90.8676 24.5937C90.6796 24.2905 90.4869 23.9873 90.2864 23.6903C90.0416 23.3287 89.7952 22.967 89.5441 22.6054C89.3309 22.3021 89.1177 21.9989 88.8918 21.702C88.486 21.1477 88.0659 20.6044 87.6268 20.069C87.3883 19.7658 87.1356 19.4625 86.8845 19.1656C85.6511 17.7063 84.3213 16.3197 82.922 15.0152C82.7925 14.8794 82.6646 14.7577 82.5288 14.6409C71.2714 4.31375 55.025 -1.25649 37.8105 0.240697C35.3768 0.447587 32.9178 0.80293 30.4462 1.29883C19.3309 3.56515 7.73089 9.35492 0.00488281 16.0733V38.1237C3.77471 32.2376 8.81588 27.0022 14.8378 22.7617V28.4741C15.2832 28.3446 15.7412 28.2167 16.1992 28.1061V21.8252C18.0454 20.6044 19.9816 19.4815 21.9952 18.4486V27.2596C22.4469 27.228 22.9049 27.2075 23.3566 27.1948V17.7584C25.2281 16.8614 27.1643 16.0544 29.159 15.3437V27.4602C29.617 27.506 30.075 27.5565 30.5204 27.6213V14.8857C32.4045 14.2603 34.3344 13.717 36.3165 13.2653V28.6857C36.7808 28.7947 37.2388 28.9052 37.6778 29.0142V12.951C37.7173 12.9447 37.7615 12.9321 37.801 12.9257C39.7057 12.5451 41.5961 12.2482 43.4755 12.0413V30.573C44.0377 30.7151 44.502 30.8241 44.8305 30.8762H44.8369V11.9118C48.9873 11.5375 53.073 11.596 57.0497 12.0476C61.1354 12.5056 65.0995 13.3837 68.8677 14.6425H59.5087C59.2828 14.3977 59.057 14.1513 58.8248 13.9128C58.1789 13.8165 57.5203 13.7249 56.8697 13.6538C53.6415 13.2858 50.3629 13.1895 47.0969 13.3632C50.5761 14.6614 54.7265 16.8677 57.6956 18.9729C57.7857 19.0377 57.8757 19.1024 57.9673 19.1672C58.2958 19.3994 58.6132 19.6315 58.9291 19.8779C59.0128 19.9426 59.0965 20.0074 59.1739 20.0721C59.8514 20.5886 60.5163 21.1366 61.1622 21.7052C61.5049 22.0021 61.8398 22.3053 62.1698 22.6085C62.5504 22.9639 62.9184 23.3255 63.2864 23.6935C63.5833 23.9904 63.8676 24.2873 64.1582 24.5969C64.1977 24.6348 64.2293 24.6743 64.2672 24.7137C64.5514 25.0107 64.8294 25.3139 65.0931 25.6234C65.6996 26.301 66.2808 27.0053 66.843 27.7271C66.9725 27.8882 67.0941 28.0493 67.2173 28.2182C67.3263 28.3541 67.4305 28.4962 67.5332 28.632C67.6564 28.7931 67.7717 28.9542 67.8885 29.1232C68.3213 29.717 68.7335 30.3235 69.1346 30.9441C68.9151 30.3314 68.6892 29.7249 68.4445 29.1232H91.3398C92.9191 30.8699 94.3578 32.7209 95.6418 34.6903ZM63.1158 19.1672C63.07 19.1024 63.0258 19.0377 62.98 18.9729C62.4051 18.1533 61.805 17.3589 61.1796 16.5913C60.9348 16.2881 60.6821 15.9849 60.4247 15.688C60.3852 15.6422 60.341 15.5916 60.3015 15.5458H71.3851C71.5083 15.5916 71.6299 15.6422 71.7531 15.688C72.4828 15.9786 73.1998 16.2755 73.9089 16.5913C75.5293 17.3083 77.1101 18.1012 78.6342 18.9729C78.7431 19.0377 78.86 19.1024 78.969 19.1672H63.1158ZM65.3111 22.6069C65.1374 22.3037 64.9557 22.0005 64.7757 21.7036C64.433 21.1492 64.0919 20.5996 63.7365 20.0706H80.4867C81.3316 20.587 82.1592 21.135 82.9647 21.7036C83.3848 22.0005 83.797 22.2974 84.2107 22.6069C84.6814 22.9623 85.1473 23.3239 85.6053 23.6919H65.9175C65.717 23.3239 65.518 22.9623 65.3111 22.6069ZM68.0796 28.2167C68.0149 28.0493 67.9375 27.8882 67.8664 27.7255C67.5695 27.0085 67.2473 26.312 66.9046 25.6218C66.7625 25.3123 66.6077 25.0091 66.4529 24.7122C66.434 24.6727 66.4134 24.6348 66.3945 24.5953H86.6887C86.7408 24.6332 86.785 24.6727 86.8308 24.7122C87.1799 25.0028 87.521 25.306 87.8574 25.6218C88.606 26.2931 89.3356 26.9974 90.0384 27.7255C90.1995 27.8866 90.3543 28.0477 90.5154 28.2167H68.0796Z" fill="white"/>
<path d="M116.205 30.6649V10.1307C116.205 9.65216 116.445 9.41211 116.922 9.41211H125.123C126.922 9.41211 128.312 9.89064 129.291 10.8477C130.27 11.8048 130.76 13.1709 130.76 14.9476V16.3485C130.76 18.2847 129.86 19.5387 128.061 20.1072C128.972 20.2446 129.702 20.6142 130.248 21.2175C130.795 21.8208 131.068 22.6815 131.068 23.7965V25.8465C131.068 27.6232 130.578 28.9893 129.599 29.9463C128.62 30.9034 127.241 31.3804 125.465 31.3804H116.922C116.444 31.3835 116.205 31.1435 116.205 30.6649ZM120.921 18.3305H124.406C125.135 18.3305 125.67 18.1773 126.013 17.8693C126.354 17.5629 126.526 17.056 126.526 16.3485V15.0155C126.526 14.3096 126.36 13.8026 126.03 13.4946C125.7 13.1867 125.169 13.0335 124.441 13.0335H120.921C120.67 13.0335 120.545 13.1582 120.545 13.4094V17.9546C120.545 18.2057 120.67 18.3305 120.921 18.3305ZM120.921 27.7606H124.748C125.499 27.7606 126.039 27.6074 126.371 27.2994C126.701 26.9914 126.867 26.4845 126.867 25.7785V23.7981C126.867 23.0921 126.696 22.5915 126.354 22.2946C126.013 21.9992 125.454 21.8508 124.68 21.8508H120.921C120.67 21.8508 120.545 21.9755 120.545 22.2267V27.3863C120.545 27.6358 120.67 27.7606 120.921 27.7606Z" fill="white"/>
<path d="M141.524 31.3835H138.619C138.141 31.3835 137.902 31.145 137.902 30.6665V10.1307C137.902 9.65216 138.141 9.41211 138.619 9.41211H146.751C148.528 9.41211 149.918 9.90327 150.919 10.8809C151.922 11.86 152.423 13.2388 152.423 15.0155V17.6814C152.423 20.2557 151.409 21.9645 149.381 22.8063V22.9437L153.037 30.5639C153.242 31.1103 153.048 31.3835 152.456 31.3835H149.689C149.278 31.3835 148.983 31.3377 148.8 31.2461C148.616 31.1545 148.47 30.9619 148.356 30.6649L144.94 23.2848H142.65C142.377 23.2848 142.239 23.4096 142.239 23.6607V30.6649C142.241 31.1435 142.002 31.3835 141.524 31.3835ZM142.617 19.7993H145.965C146.694 19.7993 147.23 19.6461 147.571 19.3381C147.912 19.0301 148.083 18.5358 148.083 17.852V15.1861C148.083 14.4801 147.912 13.9669 147.571 13.6478C147.23 13.3288 146.694 13.1693 145.965 13.1693H142.617C142.365 13.1693 142.241 13.2941 142.241 13.5452V19.4218C142.241 19.6745 142.365 19.7993 142.617 19.7993Z" fill="white"/>
<path d="M163.836 10.1307V30.6665C163.836 31.145 163.598 31.3835 163.119 31.3835H160.215C159.737 31.3835 159.498 31.145 159.498 30.6665V10.1307C159.498 9.65216 159.737 9.41211 160.215 9.41211H163.119C163.596 9.41211 163.836 9.65216 163.836 10.1307Z" fill="white"/>
<path d="M171.185 30.6649V10.1307C171.185 9.65216 171.423 9.41211 171.902 9.41211H180.341C182.118 9.41211 183.502 9.89695 184.493 10.8651C185.484 11.8332 185.98 13.2056 185.98 14.9823V25.8149C185.98 27.5916 185.484 28.964 184.493 29.9321C183.503 30.9003 182.118 31.3851 180.341 31.3851H171.902C171.425 31.3835 171.185 31.1435 171.185 30.6649ZM175.9 27.6248H179.624C180.352 27.6248 180.872 27.4716 181.178 27.1636C181.486 26.8556 181.64 26.3376 181.64 25.608V15.1861C181.64 14.458 181.486 13.9384 181.178 13.632C180.87 13.3241 180.352 13.1709 179.624 13.1709H175.9C175.649 13.1709 175.525 13.2956 175.525 13.5468V27.2489C175.525 27.5 175.649 27.6248 175.9 27.6248Z" fill="white"/>
<path d="M201.73 31.3835H198.108C196.308 31.3835 194.918 30.905 193.94 29.9495C192.961 28.9924 192.472 27.6153 192.472 25.8149V14.9823C192.472 13.1835 192.961 11.8048 193.94 10.8477C194.92 9.89064 196.309 9.41211 198.108 9.41211H201.73C203.506 9.41211 204.884 9.89695 205.864 10.8651C206.843 11.8332 207.333 13.2056 207.333 14.9823V16.0073C207.333 16.5095 207.095 16.7591 206.616 16.7591H203.712C203.233 16.7591 202.995 16.5095 202.995 16.0073V15.1877C202.995 14.4596 202.846 13.94 202.551 13.6336C202.254 13.3256 201.742 13.1725 201.013 13.1725H198.792C198.086 13.1725 197.579 13.3256 197.271 13.6336C196.963 13.9416 196.81 14.4596 196.81 15.1877V25.6096C196.81 26.3392 196.963 26.8572 197.271 27.1652C197.579 27.4731 198.085 27.6263 198.792 27.6263H201.013C201.741 27.6263 202.254 27.4731 202.551 27.1652C202.846 26.8572 202.995 26.3392 202.995 25.6096V23.4569C202.995 23.2074 202.87 23.0811 202.619 23.0811H200.569C200.09 23.0811 199.852 22.8426 199.852 22.3641V20.0393C199.852 19.5608 200.09 19.3207 200.569 19.3207H206.548C207.072 19.3207 207.335 19.5829 207.335 20.1072V25.8133C207.335 27.59 206.845 28.9624 205.866 29.9306C204.885 30.9003 203.506 31.3835 201.73 31.3835Z" fill="white"/>
<path d="M226.06 31.3835H214.886C214.407 31.3835 214.169 31.145 214.169 30.6665V10.1307C214.169 9.65216 214.407 9.41211 214.886 9.41211H226.06C226.514 9.41211 226.743 9.65216 226.743 10.1307V12.4539C226.743 12.9324 226.516 13.1709 226.06 13.1709H218.918C218.645 13.1709 218.507 13.2956 218.507 13.5468V17.9894C218.507 18.2405 218.645 18.3652 218.918 18.3652H224.761C225.24 18.3652 225.478 18.6053 225.478 19.0838V21.407C225.478 21.8855 225.24 22.124 224.761 22.124H218.918C218.645 22.124 218.507 22.2488 218.507 22.4999V27.2489C218.507 27.5 218.645 27.6248 218.918 27.6248H226.06C226.514 27.6248 226.743 27.8632 226.743 28.3418V30.6649C226.743 31.1435 226.514 31.3835 226.06 31.3835Z" fill="white"/>
<path d="M232.723 25.7777V25.0938C232.723 24.6153 232.962 24.3768 233.44 24.3768H236.345C236.823 24.3768 237.062 24.6153 237.062 25.0938V25.3671C237.062 26.2325 237.232 26.8248 237.575 27.1438C237.916 27.4628 238.543 27.6223 239.454 27.6223H241.06C241.95 27.6223 242.569 27.4502 242.922 27.109C243.275 26.7679 243.452 26.1299 243.452 25.1965V24.7859C243.452 24.1257 243.183 23.6188 242.649 23.265C242.114 22.9112 241.447 22.7012 240.65 22.6333C239.852 22.5653 238.993 22.4343 238.071 22.24C237.148 22.0458 236.288 21.7962 235.492 21.4883C234.694 21.1819 234.028 20.577 233.492 19.6768C232.957 18.7766 232.688 17.6221 232.688 16.2086V15.0131C232.688 13.2363 233.189 11.8576 234.192 10.8784C235.195 9.89925 236.585 9.40967 238.361 9.40967H241.779C243.578 9.40967 244.979 9.90083 245.982 10.8784C246.983 11.8576 247.485 13.2363 247.485 15.0131V15.6622C247.485 16.1407 247.247 16.3792 246.768 16.3792H243.864C243.385 16.3792 243.147 16.1407 243.147 15.6622V15.4569C243.147 14.5693 242.976 13.9644 242.633 13.6454C242.292 13.3264 241.665 13.1669 240.754 13.1669H239.421C238.486 13.1669 237.854 13.3437 237.524 13.6959C237.194 14.0497 237.028 14.7383 237.028 15.7632V16.4123C237.028 17.4831 237.962 18.0975 239.83 18.257C241.766 18.4165 243.486 18.8034 244.99 19.4194C245.787 19.7605 246.454 20.3701 246.989 21.2482C247.525 22.1263 247.791 23.2476 247.791 24.6137V25.7761C247.791 27.5528 247.289 28.9316 246.288 29.9107C245.285 30.8915 243.897 31.3795 242.12 31.3795H238.396C236.619 31.3795 235.23 30.8899 234.227 29.9107C233.224 28.9331 232.723 27.556 232.723 25.7777Z" fill="white"/>
<path d="M152.064 48.8131H150.434C149.668 48.8131 149.076 48.6094 148.659 48.2019C148.242 47.7945 148.033 47.2085 148.033 46.441V41.8278C148.033 41.0618 148.242 40.4743 148.659 40.0669C149.076 39.6594 149.668 39.4557 150.434 39.4557H152.064C152.83 39.4557 153.422 39.6594 153.839 40.0669C154.256 40.4743 154.464 41.0618 154.464 41.8278V46.441C154.464 47.207 154.256 47.7945 153.839 48.2019C153.422 48.6094 152.83 48.8131 152.064 48.8131ZM150.724 47.2133H151.757C152.068 47.2133 152.288 47.1485 152.419 47.0174C152.55 46.8864 152.615 46.6652 152.615 46.3541V41.9163C152.615 41.6051 152.548 41.3856 152.419 41.2529C152.288 41.1219 152.067 41.0571 151.757 41.0571H150.724C150.413 41.0571 150.195 41.1234 150.069 41.2529C149.943 41.384 149.879 41.6051 149.879 41.9163V46.3541C149.879 46.6652 149.943 46.8848 150.069 47.0174C150.195 47.1469 150.413 47.2133 150.724 47.2133ZM159.791 48.8131H158.555C158.351 48.8131 158.248 48.7105 158.248 48.5067V39.7605C158.248 39.5568 158.349 39.4541 158.555 39.4541H163.196C163.39 39.4541 163.487 39.5568 163.487 39.7605V40.7507C163.487 40.9545 163.39 41.0571 163.196 41.0571H160.271C160.154 41.0571 160.096 41.1108 160.096 41.2166V43.4719C160.096 43.5887 160.154 43.6472 160.271 43.6472H162.76C162.964 43.6472 163.067 43.7498 163.067 43.9536V44.928C163.067 45.1412 162.966 45.2486 162.76 45.2486H160.271C160.154 45.2486 160.096 45.3023 160.096 45.4081V48.5083C160.096 48.712 159.993 48.8131 159.791 48.8131ZM174.968 48.8131H173.746C173.533 48.8131 173.425 48.7105 173.425 48.5067V41.2166C173.425 41.1108 173.372 41.0571 173.266 41.0571H171.606C171.402 41.0571 171.3 40.9545 171.3 40.7507V39.7605C171.3 39.5568 171.401 39.4541 171.606 39.4541H177.107C177.311 39.4541 177.413 39.5568 177.413 39.7605V40.7507C177.413 40.9545 177.312 41.0571 177.107 41.0571H175.449C175.332 41.0571 175.273 41.1108 175.273 41.2166V48.5067C175.275 48.712 175.172 48.8131 174.968 48.8131ZM182.099 48.8131H180.862C180.659 48.8131 180.556 48.7105 180.556 48.5067V39.7605C180.556 39.5568 180.657 39.4541 180.862 39.4541H184.326C185.082 39.4541 185.675 39.6626 186.101 40.0795C186.527 40.4965 186.742 41.084 186.742 41.8404V42.976C186.742 44.072 186.311 44.8001 185.447 45.1586V45.217L187.004 48.4625C187.091 48.6947 187.009 48.8115 186.756 48.8115H185.578C185.403 48.8115 185.278 48.7926 185.201 48.7531C185.123 48.7136 185.06 48.6315 185.011 48.5051L183.557 45.3623H182.582C182.465 45.3623 182.407 45.416 182.407 45.5218V48.5051C182.405 48.712 182.303 48.8131 182.099 48.8131ZM182.565 43.8809H183.991C184.302 43.8809 184.53 43.8146 184.675 43.6835C184.82 43.5524 184.893 43.3408 184.893 43.0502V41.9147C184.893 41.6146 184.82 41.3967 184.675 41.2593C184.53 41.1234 184.302 41.0555 183.991 41.0555H182.565C182.458 41.0555 182.405 41.1092 182.405 41.215V43.7182C182.405 43.8272 182.458 43.8809 182.565 43.8809ZM195.343 39.4557H196.566C196.779 39.4557 196.886 39.552 196.886 39.7463V46.441C196.886 47.1975 196.674 47.7818 196.253 48.194C195.831 48.6062 195.242 48.8131 194.484 48.8131H192.883C192.117 48.8131 191.524 48.6094 191.107 48.2019C190.69 47.7945 190.482 47.2085 190.482 46.441V39.7605C190.482 39.5568 190.585 39.4541 190.788 39.4541H192.025C192.229 39.4541 192.33 39.5568 192.33 39.7605V46.3525C192.33 46.6637 192.395 46.8832 192.526 47.0159C192.657 47.1469 192.873 47.2117 193.173 47.2117H194.178C194.489 47.2117 194.708 47.1469 194.839 47.0159C194.97 46.8848 195.037 46.6637 195.037 46.3525V39.7605C195.037 39.5583 195.139 39.4557 195.343 39.4557ZM200.509 46.4268V46.1362C200.509 45.9324 200.61 45.8298 200.814 45.8298H202.05C202.254 45.8298 202.357 45.9324 202.357 46.1362V46.253C202.357 46.621 202.43 46.8737 202.575 47.0095C202.72 47.1454 202.987 47.2133 203.376 47.2133H204.059C204.438 47.2133 204.702 47.1406 204.852 46.9953C205.002 46.85 205.078 46.5784 205.078 46.1804V46.0051C205.078 45.724 204.964 45.5076 204.737 45.3576C204.508 45.2075 204.225 45.1175 203.886 45.0891C203.546 45.0607 203.18 45.0038 202.786 44.9217C202.393 44.8396 202.027 44.7322 201.687 44.6011C201.348 44.47 201.063 44.2142 200.836 43.8304C200.609 43.4466 200.493 42.9554 200.493 42.3521V41.842C200.493 41.0855 200.706 40.498 201.134 40.0811C201.561 39.6641 202.153 39.4557 202.91 39.4557H204.364C205.13 39.4557 205.727 39.6641 206.155 40.0811C206.582 40.498 206.795 41.0855 206.795 41.842V42.1184C206.795 42.3221 206.694 42.4248 206.49 42.4248H205.253C205.05 42.4248 204.947 42.3221 204.947 42.1184V42.0315C204.947 41.6525 204.874 41.3967 204.729 41.2593C204.584 41.1234 204.317 41.0555 203.928 41.0555H203.361C202.963 41.0555 202.695 41.1298 202.553 41.2814C202.412 41.4314 202.341 41.7252 202.341 42.161V42.4374C202.341 42.8938 202.739 43.156 203.535 43.2239C204.359 43.2918 205.092 43.4561 205.732 43.7182C206.071 43.8635 206.356 44.1226 206.583 44.4969C206.811 44.8696 206.926 45.3481 206.926 45.9309V46.4252C206.926 47.1817 206.713 47.7692 206.285 48.1861C205.858 48.6031 205.266 48.8115 204.509 48.8115H202.924C202.167 48.8115 201.575 48.6031 201.149 48.1861C200.722 47.7708 200.509 47.1833 200.509 46.4268ZM213.519 48.8131H212.297C212.084 48.8131 211.976 48.7105 211.976 48.5067V41.2166C211.976 41.1108 211.923 41.0571 211.817 41.0571H210.157C209.953 41.0571 209.851 40.9545 209.851 40.7507V39.7605C209.851 39.5568 209.952 39.4541 210.157 39.4541H215.658C215.862 39.4541 215.964 39.5568 215.964 39.7605V40.7507C215.964 40.9545 215.863 41.0571 215.658 41.0571H214C213.883 41.0571 213.824 41.1108 213.824 41.2166V48.5067C213.824 48.712 213.723 48.8131 213.519 48.8131Z" fill="white"/>
</svg>
