<svg width="243" height="87" viewBox="0 0 243 87" fill="none" xmlns="http://www.w3.org/2000/svg">
<path d="M130.799 66.9094H129.461V55.604H131.145L133.939 60.3674L136.766 65.2652C136.72 64.1807 136.698 62.5539 136.7 60.3849V55.604H138.038V66.9094H136.351L133.548 62.1781C132.972 61.229 132.469 60.344 131.994 59.5205C131.519 58.6969 131.185 58.1098 130.986 57.7506L130.699 57.2307C130.753 58.399 130.782 60.0315 130.782 62.146L130.799 66.9094Z" fill="white"/>
<path d="M148.448 66.9094H142.234V55.604H148.368V56.7956H143.573V60.6682H147.804V61.8598H143.573V65.712H148.448V66.9094Z" fill="white"/>
<path d="M158.545 56.7956H155.54V66.9094H154.199V56.7956H151.191V55.604H158.545V56.7956Z" fill="white"/>
<path d="M165.717 66.9094H164.016L161.109 55.604H162.514L163.553 59.7979L164.92 65.4813C165.536 63.1916 166.059 61.2971 166.489 59.7979L167.64 55.7734H168.978L170.202 59.7979L171.888 65.5339C172.395 63.0631 172.803 61.1569 173.111 59.8154L174.053 55.604H175.408L172.798 66.9094H171.071L169.994 63.3347L168.325 57.6834C167.985 59.0035 167.457 60.8873 166.739 63.3347L165.717 66.9094Z" fill="white"/>
<path d="M188.458 61.2059C188.458 62.9835 188.009 64.4009 187.111 65.4582C186.213 66.5154 184.998 67.043 183.467 67.0411C182.783 67.068 182.101 66.9391 181.472 66.6636C180.843 66.3882 180.282 65.9733 179.832 65.4494C178.917 64.3863 178.46 62.9718 178.462 61.2059C178.464 59.4399 178.912 58.0215 179.806 56.9506C180.704 55.9012 181.92 55.3765 183.453 55.3765C185.017 55.3765 186.242 55.8992 187.128 56.9448C188.015 57.9903 188.458 59.4107 188.458 61.2059ZM179.866 61.2059C179.866 62.6058 180.194 63.7127 180.848 64.5265C181.16 64.924 181.559 65.2418 182.014 65.4543C182.469 65.6668 182.967 65.7682 183.467 65.7502C183.969 65.7761 184.47 65.6802 184.929 65.4704C185.387 65.2607 185.79 64.9431 186.104 64.544C186.725 63.738 187.037 62.6252 187.039 61.2059C187.041 59.7865 186.726 58.6747 186.095 57.8706C185.765 57.4899 185.359 57.185 184.904 56.9761C184.449 56.7672 183.955 56.6592 183.456 56.6592C182.956 56.6592 182.462 56.7672 182.007 56.9761C181.552 57.185 181.146 57.4899 180.816 57.8706C180.183 58.6864 179.866 59.7982 179.866 61.2059Z" fill="white"/>
<path d="M195.104 62.4468H193.5V66.9094H192.162V55.604H194.954C196.243 55.604 197.221 55.9116 197.887 56.5269C198.226 56.853 198.491 57.2499 198.664 57.6901C198.837 58.1303 198.913 58.6033 198.888 59.0765C198.887 59.789 198.674 60.4845 198.275 61.0713C197.876 61.6364 197.3 62.0481 196.641 62.2395L199.565 66.9123H197.962L195.236 62.4498L195.104 62.4468ZM195.037 56.7781H193.5V61.2903H195.184C195.502 61.312 195.82 61.2675 196.12 61.1595C196.42 61.0515 196.695 60.8823 196.928 60.6624C197.131 60.4469 197.288 60.1924 197.392 59.914C197.496 59.6356 197.544 59.3389 197.533 59.0415C197.533 57.5345 196.701 56.78 195.037 56.7781Z" fill="white"/>
<path d="M204.207 66.9094H202.869V55.604H204.207V66.9094ZM210.603 66.9094H208.876L204.472 61.3312L208.72 55.6128H210.373L206.124 61.3312L210.603 66.9094Z" fill="white"/>
<path d="M106.062 28.1746C105.807 28.0066 105.596 27.7792 105.446 27.5114C105.295 27.2437 105.211 26.9433 105.198 26.6355C105.197 26.3576 105.261 26.0834 105.386 25.8363C105.512 25.5892 105.694 25.3764 105.918 25.2161C106.384 24.8481 107.055 24.6641 107.932 24.6641C109.952 24.6719 111.933 25.2319 113.666 26.285V21.3201C112.004 20.5413 110.027 20.1519 107.734 20.1519C105.163 20.1519 103.148 20.7681 101.69 22.0006C100.982 22.5864 100.417 23.3299 100.039 24.1732C99.6604 25.0166 99.4788 25.9371 99.5079 26.8633C99.502 27.4792 99.5726 28.0935 99.718 28.6915H106.781C106.531 28.535 106.29 28.3624 106.062 28.1746Z" fill="white"/>
<path d="M113.401 32.8125C112.994 32.2886 112.509 31.8333 111.962 31.4632C111.45 31.0931 110.914 30.7575 110.359 30.4585C110.088 30.3183 109.783 30.1665 109.424 29.9971H100.213C100.388 30.3175 100.598 30.6172 100.838 30.8908C101.841 31.9825 103.053 32.8542 104.401 33.4521C104.675 33.5689 105.034 33.7295 105.478 33.9369C105.921 34.1442 106.255 34.3049 106.482 34.4217C106.709 34.5385 106.989 34.6816 107.317 34.8539C107.578 34.9837 107.829 35.1341 108.068 35.3037C108.255 35.4462 108.432 35.6024 108.598 35.771C108.765 35.9337 108.893 36.1336 108.972 36.3551C109.104 36.7689 109.11 37.2136 108.988 37.6307C108.866 38.0478 108.623 38.4176 108.29 38.6915C107.724 39.132 107.025 39.3582 106.312 39.3311C103.921 39.3149 101.598 38.5137 99.6924 37.0473V42.4123C101.4 43.3858 103.607 43.8726 106.312 43.8726C108.837 43.8726 110.861 43.2213 112.382 41.9187C113.128 41.3023 113.725 40.5199 114.125 39.6321C114.525 38.7443 114.719 37.7749 114.691 36.799C114.697 36.0327 114.569 35.2713 114.314 34.5502C114.096 33.9283 113.788 33.3427 113.401 32.8125Z" fill="white"/>
<path d="M116.733 24.5588H122.36V43.5891H127.648V24.5588H133.24V20.2686H116.733V24.5588Z" fill="white"/>
<path d="M142.07 20.2686H136.817V43.5891H142.07V20.2686Z" fill="white"/>
<path d="M156.562 29.9971H151.277V43.5922H156.562V29.9971Z" fill="white"/>
<path d="M145.65 24.5588H151.277V28.671H156.562V24.5588H162.154V20.2686H145.65V24.5588Z" fill="white"/>
<path d="M164.54 31.9976C164.54 35.5023 165.671 38.3576 167.933 40.5636C170.196 42.7696 173.01 43.8706 176.375 43.8667C178.989 43.8667 180.989 43.4286 182.376 42.5525V37.3276C180.851 38.4355 179.02 38.9884 176.885 38.9865C174.908 38.9865 173.295 38.3586 172.043 37.1028C170.792 35.8469 170.167 34.1452 170.167 31.9976C170.165 31.3252 170.235 30.6545 170.374 29.9971H164.667C164.581 30.6604 164.539 31.3287 164.54 31.9976Z" fill="white"/>
<path d="M167.833 23.3147C166.385 24.787 165.376 26.6433 164.92 28.671H170.791C171.283 27.5053 172.106 26.5146 173.155 25.8254C174.203 25.1362 175.431 24.7796 176.68 24.8012C178.689 24.7785 180.663 25.3301 182.376 26.3929V21.2732C180.989 20.3971 178.999 19.959 176.407 19.959C172.884 19.959 170.026 21.0776 167.833 23.3147Z" fill="white"/>
<path d="M199.971 29.7486H191.547V20.2686H186.297V43.5891H191.547V34.2813H199.971V43.5891H205.256V20.2686H199.971V29.7486Z" fill="white"/>
<path d="M215.283 20.2686H210.03V43.5891H215.283V20.2686Z" fill="white"/>
<path d="M232.057 33.6943L232.296 34.5237H226.773L227.012 33.6943C228.512 28.595 229.353 25.4116 229.533 24.1441L229.68 24.8246C229.768 25.286 230.023 26.3121 230.446 27.9028C230.509 28.1482 230.578 28.4023 230.647 28.6593H235.684L232.909 20.2686H226.289L218.616 43.5891H224.105L225.504 38.814H233.563L234.961 43.5891H240.588L236.116 29.9969H231.001C231.312 31.1106 231.664 32.343 232.057 33.6943Z" fill="white"/>
<path d="M43.2106 84.8911C65.7397 84.8911 84.0032 66.3589 84.0032 43.4983C84.0032 20.6377 65.7397 2.10547 43.2106 2.10547C20.6815 2.10547 2.41797 20.6377 2.41797 43.4983C2.41797 66.3589 20.6815 84.8911 43.2106 84.8911Z" fill="#050716"/>
<path d="M40.0411 15.5928V23.5075C39.8396 23.3731 27.9527 15.4117 20.5068 29.0214C21.3475 24.614 23.8762 20.7246 27.5386 18.2062C31.201 15.6878 35.6982 14.7459 40.044 15.5869L40.0411 15.5928Z" fill="white"/>
<path d="M40.0382 23.5045C37.7618 22.6666 35.2513 22.776 33.0541 23.809C30.8569 24.842 29.1514 26.7146 28.3096 29.0185H20.5039C27.9412 15.4088 39.8367 23.3643 40.0382 23.5045Z" fill="white"/>
<path d="M40.041 48.8901C35.6943 49.7368 31.194 48.7972 27.5298 46.278C23.8656 43.7587 21.3374 39.8659 20.501 35.4556H28.3095C28.3095 35.4556 27.8432 47.1144 40.041 48.8901Z" fill="white"/>
<path d="M40.0415 40.9725V48.89C27.8437 47.1144 28.31 35.4556 28.31 35.4556C29.1269 37.6896 30.7569 39.5208 32.8643 40.5721C34.9718 41.6234 37.3962 41.8147 39.6385 41.1068C39.7738 41.0688 39.9062 41.0221 40.0415 40.9725Z" fill="white"/>
<path d="M46.3788 38.1104V46.025C46.5803 45.8878 58.4672 37.9264 65.9102 51.539C65.0703 47.1312 62.5417 43.2414 58.8791 40.7228C55.2165 38.2043 50.7189 37.2627 46.373 38.1045L46.3788 38.1104Z" fill="white"/>
<path d="M46.3848 46.0247C48.6608 45.1869 51.1709 45.2964 53.3676 46.3294C55.5643 47.3624 57.2693 49.235 58.1105 51.5387H65.9104C58.4818 37.926 46.5862 45.8874 46.3848 46.0247Z" fill="white"/>
<path d="M46.3789 71.4071C50.7257 72.2539 55.2259 71.3143 58.8901 68.795C62.5543 66.2758 65.0826 62.383 65.919 57.9727H58.1104C58.1104 57.9727 58.5767 69.6315 46.3789 71.4071Z" fill="white"/>
<path d="M46.3789 63.4925V71.4072C58.5767 69.6315 58.1104 57.9727 58.1104 57.9727C57.297 60.2087 55.668 62.0421 53.5601 63.0939C51.4522 64.1457 49.0266 64.3354 46.7847 63.6239C46.6466 63.5859 46.5142 63.5421 46.3789 63.4925Z" fill="white"/>
</svg>
