<svg width="2003" height="392" viewBox="0 0 2003 392" fill="none" xmlns="http://www.w3.org/2000/svg">
<g clip-path="url(#clip0_800_1582)">
<path d="M440.937 54.0859C408.876 58.4346 378.609 71.4575 353.394 91.7517C328.18 112.046 308.975 138.842 297.847 169.254C299.717 134.376 291.281 99.7198 273.592 69.6133C255.903 39.5068 229.746 15.2847 198.386 -0.027832C229.9 28.9073 249.945 68.2391 254.851 110.764C259.757 153.288 249.195 196.158 225.1 231.523C201.004 266.887 164.988 292.377 123.648 303.326C82.3086 314.274 38.4125 309.947 0 291.137C21.5365 310.915 47.6098 325.076 75.914 332.368C104.218 339.659 133.881 339.856 162.28 332.942C190.678 326.027 216.937 312.214 238.734 292.723C260.53 273.233 277.194 248.666 287.25 221.195C285.38 256.073 293.816 290.729 311.505 320.836C329.194 350.942 355.352 375.164 386.711 390.477C355.197 361.542 335.152 322.21 330.246 279.685C325.34 237.161 335.902 194.291 359.998 158.926C384.093 123.562 420.109 98.0716 461.449 87.1234C502.789 76.1752 546.685 80.5024 585.097 99.3123C565.869 81.6257 542.98 68.4026 518.062 60.5852C493.144 52.7679 466.81 50.5487 440.937 54.0859Z" fill="white"/>
<path d="M699.073 301.914C687.741 297.203 677.93 289.451 670.72 279.512C663.782 269.609 660.178 257.749 660.433 245.656H699.693C700.3 254.789 704.398 263.337 711.135 269.525C717.9 275.732 727.369 278.835 739.545 278.835C752.209 278.835 762.082 275.779 769.166 269.666C772.602 266.768 775.341 263.133 777.18 259.03C779.02 254.927 779.912 250.462 779.791 245.966C780.079 239.216 777.711 232.622 773.196 227.599C768.614 222.75 762.997 218.998 756.765 216.624C747.866 213.292 738.785 210.466 729.568 208.16C717.43 205.119 705.532 201.186 693.971 196.395C684.727 192.333 676.688 185.948 670.635 177.859C664.209 169.395 660.996 158.335 660.996 144.341C660.733 132.342 664.092 120.542 670.635 110.485C677.311 100.606 686.711 92.8816 697.692 88.2524C710.414 82.8681 724.129 80.2338 737.938 80.5218C759.621 80.5218 777.377 85.9388 791.206 96.7729C805.035 107.607 812.71 122.494 814.232 141.435H773.76C773.402 137.324 772.186 133.334 770.191 129.723C768.196 126.112 765.465 122.96 762.176 120.472C755.074 114.66 745.736 111.764 734.162 111.783C724.901 111.376 715.79 114.22 708.402 119.823C701.75 125.222 698.424 132.962 698.424 143.043C698.303 146.138 698.793 149.227 699.867 152.132C700.941 155.037 702.577 157.701 704.681 159.971C709.174 164.588 714.618 168.169 720.633 170.467C729.274 173.772 738.09 176.597 747.042 178.931C759.381 182.174 771.482 186.265 783.258 191.176C792.672 195.321 800.871 201.809 807.073 210.022C813.612 218.505 816.891 229.838 816.909 244.02C816.906 255.416 813.724 266.585 807.721 276.268C801.242 286.699 791.991 295.12 781.003 300.588C768.146 307.018 753.913 310.204 739.545 309.87C725.648 310.064 711.864 307.354 699.073 301.914Z" fill="white"/>
<path d="M1020.06 129.952L911.24 391.041H873.248L909.296 304.651L839.428 129.952H880.463L930.377 265.378L982.207 129.952H1020.06Z" fill="white"/>
<path d="M1172.17 135.764C1183.21 141.544 1192.25 150.533 1198.1 161.551C1204.63 174.294 1207.83 188.484 1207.4 202.8V307.557H1171.04V208.301C1171.04 192.426 1167.07 180.2 1159.15 171.624C1151.22 163.047 1140.38 158.796 1126.62 158.871C1112.91 158.871 1102.01 163.122 1093.93 171.624C1085.85 180.125 1081.83 192.351 1081.87 208.301V307.585H1045.23V129.952H1081.87V150.266C1088.07 142.814 1095.96 136.96 1104.89 133.197C1114.29 129.093 1124.43 127.007 1134.68 127.074C1147.7 126.85 1160.57 129.835 1172.17 135.764Z" fill="white"/>
<path d="M1243.67 170.58C1250.57 157.323 1261 146.24 1273.81 138.561C1286.63 130.881 1301.31 126.905 1316.24 127.074C1328.94 126.761 1341.53 129.581 1352.88 135.284C1362.59 140.193 1371.11 147.175 1377.82 155.739V129.952H1414.86V307.557H1377.74V281.121C1370.99 289.952 1362.32 297.123 1352.37 302.083C1340.04 308.124 1326.39 310.979 1312.67 310.388C1298.95 309.796 1285.6 305.778 1273.83 298.698C1260.99 290.681 1250.58 279.306 1243.73 265.801C1236.12 250.978 1232.29 234.5 1232.59 217.838C1232.27 201.405 1236.08 185.156 1243.67 170.58ZM1370.19 186.69C1365.62 178.136 1358.8 171.002 1350.46 166.066C1342.46 161.366 1333.35 158.91 1324.08 158.956C1314.63 158.877 1305.34 161.371 1297.19 166.172C1289.05 170.973 1282.37 177.899 1277.86 186.21C1272.61 195.949 1270.01 206.892 1270.3 217.95C1270.05 229.158 1272.65 240.246 1277.86 250.17C1282.43 258.93 1289.35 266.245 1297.84 271.302C1305.8 276.026 1314.88 278.53 1324.13 278.554C1333.38 278.579 1342.47 276.124 1350.46 271.443C1358.82 266.475 1365.65 259.289 1370.19 250.678C1375.4 240.808 1378 229.763 1377.74 218.599C1378.02 207.488 1375.42 196.494 1370.19 186.69Z" fill="white"/>
<path d="M1501.38 135.425C1512.65 129.697 1525.13 126.792 1537.77 126.961C1552.64 126.819 1567.27 130.772 1580.04 138.388C1592.87 146.064 1603.29 157.175 1610.15 170.466C1617.66 185.104 1621.43 201.382 1621.11 217.837C1621.41 234.48 1617.65 250.945 1610.15 265.8C1603.34 279.292 1592.94 290.638 1580.1 298.584C1567.39 306.404 1552.74 310.481 1537.83 310.35C1525.31 310.587 1512.92 307.758 1501.75 302.111C1491.86 297.13 1483.1 290.167 1476.02 281.656V391.887H1439.38V129.952H1476.02V156.077C1482.84 147.396 1491.5 140.342 1501.38 135.425ZM1576.24 186.21C1571.61 177.712 1564.7 170.677 1556.29 165.896C1548.18 161.309 1539.02 158.916 1529.71 158.955C1520.49 158.954 1511.43 161.408 1503.47 166.065C1495.04 170.958 1488.13 178.097 1483.51 186.689C1478.29 196.494 1475.68 207.488 1475.96 218.599C1475.73 229.751 1478.36 240.776 1483.6 250.621C1486.9 256.878 1491.44 262.399 1496.94 266.85C1502.43 271.301 1508.78 274.59 1515.58 276.518C1522.38 278.446 1529.5 278.972 1536.51 278.066C1543.53 277.16 1550.28 274.84 1556.37 271.245C1564.84 266.176 1571.75 258.863 1576.32 250.113C1581.53 240.189 1584.13 229.101 1583.88 217.894C1584.13 206.846 1581.5 195.924 1576.24 186.21Z" fill="white"/>
<path d="M1683.28 159.943V258.239C1683.28 264.897 1684.83 269.694 1687.96 272.572C1691.09 275.449 1696.42 276.945 1703.88 276.945H1726.43V307.556H1697.46C1680.92 307.556 1668.26 303.691 1659.47 295.961C1650.67 288.23 1646.28 275.656 1646.28 258.239V159.943H1625.34V129.952H1646.28V85.7974H1683.28V129.952H1726.43V159.943H1683.28Z" fill="white"/>
<path d="M1774.4 99.6788C1771.06 96.3874 1768.79 92.1731 1767.86 87.5767C1766.93 82.9802 1767.4 78.2112 1769.2 73.8816C1770.99 69.5519 1774.04 65.8591 1777.95 63.277C1781.87 60.6949 1786.46 59.3413 1791.14 59.3897C1794.19 59.3285 1797.23 59.8953 1800.06 61.0552C1802.88 62.215 1805.44 63.9432 1807.57 66.1328C1811.91 70.635 1814.34 76.6482 1814.34 82.9058C1814.34 89.1633 1811.91 95.1766 1807.57 99.6788C1805.43 101.858 1802.87 103.579 1800.05 104.738C1797.22 105.897 1794.19 106.47 1791.14 106.422C1788.04 106.496 1784.95 105.936 1782.08 104.776C1779.2 103.617 1776.59 101.883 1774.4 99.6788ZM1809.18 129.952V307.557H1772.54V129.952H1809.18Z" fill="white"/>
<path d="M1845.4 170.41C1852.38 156.998 1863.05 145.866 1876.14 138.331C1889.91 130.64 1905.47 126.746 1921.24 127.046C1942.72 127.046 1960.48 132.143 1974.53 142.338C1988.59 152.532 1998.09 167.09 2003.03 186.012H1963.57C1960.71 177.677 1955.3 170.459 1948.1 165.388C1940.18 160.2 1930.84 157.607 1921.38 157.968C1914.58 157.695 1907.8 158.993 1901.58 161.763C1895.36 164.532 1889.86 168.697 1885.5 173.937C1876.58 184.583 1872.11 199.461 1872.11 218.571C1872.11 237.681 1876.58 252.615 1885.5 263.374C1889.83 268.651 1895.33 272.852 1901.55 275.647C1907.78 278.442 1914.56 279.755 1921.38 279.484C1942.63 279.484 1956.72 270.136 1963.66 251.44H2003.11C1998.51 268.654 1988.25 283.817 1974 294.494C1959.83 305.121 1942.23 310.444 1921.18 310.463C1905.4 310.775 1889.82 306.817 1876.09 299.008C1863 291.396 1852.34 280.223 1845.34 266.788C1838.03 251.776 1834.24 235.297 1834.24 218.599C1834.24 201.901 1838.03 185.422 1845.34 170.41H1845.4Z" fill="white"/>
</g>
<defs>
<clipPath id="clip0_800_1582">
<rect width="2003" height="392" fill="white"/>
</clipPath>
</defs>
</svg>
