<svg width="31" height="32" viewBox="0 0 31 32" fill="none" xmlns="http://www.w3.org/2000/svg">
<path d="M28.1356 0.319824H2.2444C1.0044 0.319824 0 1.32462 0 2.56622V29.4302C0 30.6718 1.0044 31.6766 2.2444 31.6766H28.1356C29.3756 31.6766 30.38 30.6686 30.38 29.4302V2.56622C30.38 1.32462 29.3756 0.319824 28.1356 0.319824ZM9.2101 26.5694H4.619V12.4126H9.2101V26.5694ZM6.9161 10.4766H6.8851C5.3444 10.4766 4.3493 9.38862 4.3493 8.02862C4.3493 6.63982 5.3754 5.58382 6.9471 5.58382C8.5157 5.58382 9.4829 6.63982 9.5139 8.02862C9.5108 9.39182 8.5157 10.4766 6.9161 10.4766ZM25.7579 26.5694H21.1699V18.995C21.1699 17.091 20.5065 15.7918 18.8449 15.7918C17.5739 15.7918 16.8206 16.6686 16.492 17.5134C16.368 17.8142 16.3401 18.2366 16.3401 18.659V26.5662H11.749C11.749 26.5662 11.8079 13.7342 11.749 12.4062H16.337V14.4126C16.9446 13.4494 18.0358 12.0734 20.4724 12.0734C23.4918 12.0734 25.7579 14.0958 25.7579 18.4478V26.5694ZM16.3091 14.4638C16.3184 14.451 16.3277 14.435 16.3401 14.419V14.4638H16.3091Z" fill="white"/>
</svg>
