<svg width="32" height="36" viewBox="0 0 32 36" fill="none" xmlns="http://www.w3.org/2000/svg">
<g clip-path="url(#clip0_103_19)">
<path d="M16.0076 9.91416C11.4648 9.91416 7.80047 13.5212 7.80047 17.9931C7.80047 22.4649 11.4648 26.072 16.0076 26.072C20.5505 26.072 24.2148 22.4649 24.2148 17.9931C24.2148 13.5212 20.5505 9.91416 16.0076 9.91416ZM16.0076 23.2454C13.0719 23.2454 10.6719 20.8899 10.6719 17.9931C10.6719 15.0962 13.0648 12.7407 16.0076 12.7407C18.9505 12.7407 21.3433 15.0962 21.3433 17.9931C21.3433 20.8899 18.9433 23.2454 16.0076 23.2454ZM26.4648 9.58369C26.4648 10.6313 25.6076 11.4681 24.5505 11.4681C23.4862 11.4681 22.6362 10.6243 22.6362 9.58369C22.6362 8.54307 23.4933 7.69932 24.5505 7.69932C25.6076 7.69932 26.4648 8.54307 26.4648 9.58369ZM31.9005 11.4962C31.779 8.97197 31.1933 6.73603 29.3148 4.89385C27.4433 3.05166 25.1719 2.4751 22.6076 2.34854C19.9648 2.20088 12.0433 2.20088 9.40047 2.34854C6.84333 2.46807 4.5719 3.04463 2.69333 4.88682C0.81476 6.729 0.236189 8.96494 0.107617 11.4892C-0.0423828 14.0907 -0.0423828 21.8884 0.107617 24.4899C0.229046 27.0142 0.81476 29.2501 2.69333 31.0923C4.5719 32.9345 6.83619 33.511 9.40047 33.6376C12.0433 33.7852 19.9648 33.7852 22.6076 33.6376C25.1719 33.5181 27.4433 32.9415 29.3148 31.0923C31.1862 29.2501 31.7719 27.0142 31.9005 24.4899C32.0505 21.8884 32.0505 14.0978 31.9005 11.4962ZM28.4862 27.2813C27.929 28.6595 26.8505 29.7212 25.4433 30.2767C23.3362 31.0993 18.3362 30.9095 16.0076 30.9095C13.679 30.9095 8.6719 31.0923 6.5719 30.2767C5.1719 29.7282 4.09333 28.6665 3.52905 27.2813C2.69333 25.2071 2.88619 20.2853 2.88619 17.9931C2.88619 15.7009 2.70047 10.772 3.52905 8.70478C4.08619 7.32666 5.16476 6.26494 6.5719 5.70947C8.67904 4.88682 13.679 5.07666 16.0076 5.07666C18.3362 5.07666 23.3433 4.89385 25.4433 5.70947C26.8433 6.25791 27.9219 7.31963 28.4862 8.70478C29.3219 10.779 29.129 15.7009 29.129 17.9931C29.129 20.2853 29.3219 25.2142 28.4862 27.2813Z" fill="white"/>
</g>
<defs>
<clipPath id="clip0_103_19">
<rect width="32" height="36" fill="white"/>
</clipPath>
</defs>
</svg>
