<svg width="32" height="30" viewBox="0 0 32 30" fill="none" xmlns="http://www.w3.org/2000/svg">
<path d="M16 0C7.16533 0 0 6.71625 0 15C0 21.6275 4.584 27.25 10.9427 29.2337C11.7413 29.3725 12 28.9075 12 28.5125V25.72C7.54933 26.6275 6.62267 23.95 6.62267 23.95C5.89467 22.2162 4.84533 21.755 4.84533 21.755C3.39333 20.8237 4.956 20.8438 4.956 20.8438C6.56267 20.9487 7.408 22.39 7.408 22.39C8.83467 24.6825 11.1507 24.02 12.064 23.6362C12.2067 22.6675 12.6213 22.005 13.08 21.6313C9.52667 21.25 5.79067 19.9637 5.79067 14.2175C5.79067 12.5787 6.416 11.2413 7.43867 10.1912C7.27333 9.8125 6.72533 8.28625 7.59467 6.22125C7.59467 6.22125 8.93867 5.81875 11.996 7.75875C13.272 7.42625 14.64 7.26 16 7.25375C17.36 7.26 18.7293 7.42625 20.008 7.75875C23.0627 5.81875 24.404 6.22125 24.404 6.22125C25.2747 8.2875 24.7267 9.81375 24.5613 10.1912C25.588 11.2413 26.208 12.58 26.208 14.2175C26.208 19.9788 22.4653 21.2475 18.9027 21.6187C19.476 22.0837 20 22.9963 20 24.3962V28.5125C20 28.9112 20.256 29.38 21.068 29.2325C27.4213 27.2463 32 21.625 32 15C32 6.71625 24.836 0 16 0Z" fill="white"/>
</svg>
